<mxfile host="app.diagrams.net" modified="2023-11-27T20:07:46.975Z" agent="Mozilla/5.0 (Macintosh; Intel Mac OS X 10_15_7) AppleWebKit/537.36 (KHTML, like Gecko) Chrome/119.0.0.0 Safari/537.36" version="22.1.4" etag="E4-kJYl9vneuHtc5fyWY" type="github">
  <diagram name="PÃ¡gina-1" id="4hc7jtP-S_x6YwVCkKFc">
    <mxGraphModel>
      <root>
        <mxCell id="0" />
        <mxCell id="1" parent="0" />
        <mxCell id="2" value="Deploy" style="whiteSpace=wrap;strokeWidth=2;" vertex="1" parent="1">
          <mxGeometry x="194" width="64" height="34" as="geometry" />
        </mxCell>
        <mxCell id="3" value="Build" style="rounded=1;absoluteArcSize=1;arcSize=14;whiteSpace=wrap;strokeWidth=2;" vertex="1" parent="1">
          <mxGeometry x="200" y="84" width="51" height="34" as="geometry" />
        </mxCell>
        <mxCell id="4" value="Test" style="rounded=1;absoluteArcSize=1;arcSize=14;whiteSpace=wrap;strokeWidth=2;" vertex="1" parent="1">
          <mxGeometry x="145" y="167" width="44" height="34" as="geometry" />
        </mxCell>
        <mxCell id="5" value="Deploy to Staging" style="whiteSpace=wrap;strokeWidth=2;" vertex="1" parent="1">
          <mxGeometry y="251" width="140" height="34" as="geometry" />
        </mxCell>
        <mxCell id="6" value="Notify Test Results" style="rounded=1;absoluteArcSize=1;arcSize=14;whiteSpace=wrap;strokeWidth=2;" vertex="1" parent="1">
          <mxGeometry x="190" y="251" width="147" height="34" as="geometry" />
        </mxCell>
        <mxCell id="7" value="Test on Staging" style="rounded=1;absoluteArcSize=1;arcSize=14;whiteSpace=wrap;strokeWidth=2;" vertex="1" parent="1">
          <mxGeometry x="9" y="334" width="123" height="34" as="geometry" />
        </mxCell>
        <mxCell id="8" value="Passed?" style="rhombus;strokeWidth=2;whiteSpace=wrap;" vertex="1" parent="1">
          <mxGeometry x="175" y="418" width="102" height="102" as="geometry" />
        </mxCell>
        <mxCell id="9" value="Deploy to Production" style="whiteSpace=wrap;strokeWidth=2;" vertex="1" parent="1">
          <mxGeometry x="143" y="588" width="165" height="34" as="geometry" />
        </mxCell>
        <mxCell id="10" value="Notify Production Deployment" style="rounded=1;absoluteArcSize=1;arcSize=14;whiteSpace=wrap;strokeWidth=2;" vertex="1" parent="1">
          <mxGeometry x="110" y="671" width="231" height="34" as="geometry" />
        </mxCell>
        <mxCell id="11" value="" style="curved=1;startArrow=none;endArrow=block;exitX=0.4945068359375;exitY=0.9852941176470589;entryX=0.5029105392156863;entryY=-0.014705882352941176;" edge="1" parent="1" source="2" target="3">
          <mxGeometry relative="1" as="geometry">
            <Array as="points" />
          </mxGeometry>
        </mxCell>
        <mxCell id="12" value="" style="curved=1;startArrow=none;endArrow=block;exitX=0.03947137893330997;exitY=0.9705882352941176;entryX=0.49400745738636365;entryY=0;" edge="1" parent="1" source="3" target="4">
          <mxGeometry relative="1" as="geometry">
            <Array as="points">
              <mxPoint x="167" y="142" />
            </Array>
          </mxGeometry>
        </mxCell>
        <mxCell id="13" value="" style="curved=1;startArrow=none;endArrow=block;exitX=-0.004216974431818182;exitY=0.7709615469135492;entryX=0.5001116071428572;entryY=-0.014705882352941176;" edge="1" parent="1" source="4" target="5">
          <mxGeometry relative="1" as="geometry">
            <Array as="points">
              <mxPoint x="70" y="226" />
            </Array>
          </mxGeometry>
        </mxCell>
        <mxCell id="14" value="" style="curved=1;startArrow=none;endArrow=block;exitX=0.9922318892045454;exitY=0.7709615469135492;entryX=0.4997076955782313;entryY=-0.014705882352941176;" edge="1" parent="1" source="4" target="6">
          <mxGeometry relative="1" as="geometry">
            <Array as="points">
              <mxPoint x="263" y="226" />
            </Array>
          </mxGeometry>
        </mxCell>
        <mxCell id="15" value="" style="curved=1;startArrow=none;endArrow=block;exitX=0.5001116071428572;exitY=0.9705882352941176;entryX=0.4960619918699187;entryY=0;" edge="1" parent="1" source="5" target="7">
          <mxGeometry relative="1" as="geometry">
            <Array as="points" />
          </mxGeometry>
        </mxCell>
        <mxCell id="16" value="" style="curved=1;startArrow=none;endArrow=block;exitX=0.4960619918699187;exitY=0.9852941176470589;entryX=-0.0012254901960784314;entryY=0.2505217068818895;" edge="1" parent="1" source="7" target="8">
          <mxGeometry relative="1" as="geometry">
            <Array as="points">
              <mxPoint x="70" y="393" />
            </Array>
          </mxGeometry>
        </mxCell>
        <mxCell id="17" value="Yes" style="curved=1;startArrow=none;endArrow=block;exitX=0.49655330882352944;exitY=0.9906556372549019;entryX=0.5008996212121212;entryY=-0.01332720588235294;" edge="1" parent="1" source="8" target="9">
          <mxGeometry relative="1" as="geometry">
            <Array as="points" />
          </mxGeometry>
        </mxCell>
        <mxCell id="18" value="No" style="curved=1;startArrow=none;endArrow=block;exitX=0.9943321078431373;exitY=0.2505217068818895;entryX=1.0028339460784315;entryY=0.6791050753417176;" edge="1" parent="1" source="8" target="3">
          <mxGeometry relative="1" as="geometry">
            <Array as="points">
              <mxPoint x="381" y="393" />
              <mxPoint x="381" y="142" />
            </Array>
          </mxGeometry>
        </mxCell>
        <mxCell id="19" value="" style="curved=1;startArrow=none;endArrow=block;exitX=0.5008996212121212;exitY=0.9719669117647058;entryX=0.5006425865800865;entryY=0.0013786764705882354;" edge="1" parent="1" source="9" target="10">
          <mxGeometry relative="1" as="geometry">
            <Array as="points" />
          </mxGeometry>
        </mxCell>
      </root>
    </mxGraphModel>
  </diagram>
</mxfile>
